<!-- Generator: Adobe Illustrator 21.0.0, SVG Export Plug-In  -->
<svg version="1.1"
	 xmlns="http://www.w3.org/2000/svg" xmlns:xlink="http://www.w3.org/1999/xlink" xmlns:a="http://ns.adobe.com/AdobeSVGViewerExtensions/3.0/"
	 x="0px" y="0px" width="1245.9px" height="966.4px" viewBox="0 0 1245.9 966.4" style="enable-background:new 0 0 1245.9 966.4;"
	 xml:space="preserve">
<style type="text/css">
	.st0{fill:#FFFFFF;}
</style>
<defs>
</defs>
<path class="st0" d="M1242.6,232.9c-14.2-24.3-45.7-39.1-45.7-39.1c-36.2-21.3-86-18.4-86-18.4c-145.9,3.6-253.3,2.4-253.3,2.4
	l-13.4-15.6c34.5-48.2,41.1-55.4,41.1-55.4c18.3-19.1,16.9-32.5,16.9-32.5c-0.2-18.5-20-18.7-20-18.7l-41.1,0.2
	C802.4,54.4,765,90.6,765,90.6c-24-18.7-68.6-41.4-68.6-41.4C606.3,1.7,488.1-9.7,398.4,7.7C308.7,25,256.7,50,187.7,101.2
	S81.1,214.7,81.1,214.7c-9,7-23,21.4-23,21.4c-28.9,31.7-19.7,57.2-19.7,57.2s-35.7,73-38.3,189.9s52.6,220.9,52.6,220.9
	C39.7,715-38,855.6,23.5,900.2c61.5,44.6,163.8-34.3,163.8-34.3c137.5,104.2,285.3,100.5,285.3,100.5
	c250.2,0,366.4-152.9,405.7-203.7c39.3-50.8,87.5-156.8,87.5-279.7s-47.3-206.3-47.3-206.3l297.3-10.1
	C1259.8,265.5,1242.6,232.9,1242.6,232.9z M620.5,94.3c0,0,51.1,11.2,106,46l-28.1,37.9l-141.7,1.2
	C556.6,179.4,597.4,122.3,620.5,94.3z M501.8,80.7c0,0-10.3,1.8-80.2,101.5l-177.8,2C243.7,184.3,341.8,81.8,501.8,80.7z
	 M150.4,307.4l184.5-7.9c0,0-58.5,85.2-207.9,294.9C127,594.3,78.6,459.9,150.4,307.4z M278,810.4l-10.1-8.2l16.2-14
	C284.1,788.3,278.6,803,278,810.4z M224.9,762.7c0,0-13.8-10.6-45.3-53.4c0,0,70.1-107.5,193.1-276.6L472.3,294l145.6-5.4L417.3,572
	C417.3,572,308,701.7,224.9,762.7z M869.4,672c0,0-122.7,259-427.6,208c0,0,101.6-64.4,200.3-174.2c0,0,84.5-89.7,99.2-116.1
	c0,0,26.9-39.1,7.9-54.4c0,0-21.1-8.4-53.8,32.2c0,0-75.5,96.1-194.8,193.2c0,0-53.8,48.6-75,34.3c0,0-22.7-16.4,47.5-115.1
	c0,0,41.4-62.6,203.8-291.1l78.5-106.1l106.4-3.7C861.9,278.9,984.2,460.9,869.4,672z"/>
</svg>
