<!-- Generator: Adobe Illustrator 21.0.0, SVG Export Plug-In  -->
<svg version="1.1"
	 xmlns="http://www.w3.org/2000/svg" xmlns:xlink="http://www.w3.org/1999/xlink" xmlns:a="http://ns.adobe.com/AdobeSVGViewerExtensions/3.0/"
	 x="0px" y="0px" width="3425.8px" height="1095.8px" viewBox="0 0 3425.8 1095.8"
	 style="enable-background:new 0 0 3425.8 1095.8;" xml:space="preserve">
<style type="text/css">
	.st0{fill:#FFFFFF;}
</style>
<defs>
</defs>
<g>
	<path class="st0" d="M1123.8,624.9c-3.9,4.9-13.3,16.7-28,35.4c-14.7,18.7-31.2,41.1-49.4,67.1c-18.2,26.1-37.1,53.1-56.8,81.1
		c-19.7,28-36.9,53.8-51.6,77.4c-18.7,29.5-29,50.9-31,64.1c-2,13.3,1,20.9,8.8,22.9c9.8,2.9,26.3-3.4,49.4-19.2
		c23.1-15.7,48.7-36.3,76.7-61.9c28-25.5,18.1-15.8,52.9-41.5c43.5-32.2,132.6-66.1,153.2-90.7c12.8-15.7,26.2-12.3,35.6-16.7
		c9.3-4.4,2.1,5,6.5,9.4c4.4,4.4,17.7,8.3,16.7,18.2c-1,9.8-5.5-22.9-13.3-11.1c-6.9,9.8-26.7,14.4-42.4,34.1
		c-15.7,19.7-73.5,43.7-95.6,67.3c-22.1,23.6-46.4,48.2-73,73.7c-26.5,25.6-53.3,49.2-80.3,70.8c-27,21.6-53.3,40.5-78.9,56.8
		c-25.6,16.2-49.2,26.3-70.8,30.2c-28.5,5.9-50.6,4.4-66.3-4.4c-15.7-8.8-25.8-22.6-30.2-41.3c-4.4-18.7-3.7-40.5,2.2-65.6
		c5.9-25.1,16.7-50.9,32.4-77.4c10.8-19.6,25.8-44,45-73c19.2-29,38.6-57.5,58.2-85.5c19.7-28,37.8-53.3,54.6-75.9
		c16.7-22.6,28-37.3,33.9-44.2c10.8-14.7,24.6-26.5,41.3-35.4c16.7-8.8,31.9-13.3,45.7-13.3h42.8c13.8,0,21.9,4.7,24.3,14
		C1138.8,599.6,1134.6,611.2,1123.8,624.9z M1268.3,397.9c0,22.6-7.6,41.8-22.9,57.5c-15.2,15.7-34.2,23.6-56.8,23.6
		c-22.6,0-41.8-7.9-57.5-23.6c-15.7-15.7-23.6-34.9-23.6-57.5c0-22.6,7.9-41.5,23.6-56.8c15.7-15.2,34.9-22.8,57.5-22.8
		c22.6,0,41.5,7.6,56.8,22.8C1260.7,356.4,1268.3,375.3,1268.3,397.9z"/>
	<path class="st0" d="M1065.6,869.8C1354,676.9,1424.6,645.3,1454,627.1c29.5-18.2,56.3-32.2,80.4-42c24.1-9.8,44.7-15.2,61.9-16.2
		c17.2-1,29.2,2,36.1,8.8c12.8,13.8,13.3,32.7,1.5,56.8c-11.8,24.1-28,48.9-48.7,74.5c-20.6,25.6-41.3,49.6-61.9,72.2
		c-20.6,22.6-32.9,39.3-36.9,50.1c31.4-10.8,58.7-24.6,81.8-41.3c23.1-16.7,46.9-37.3,71.5-61.9c10.8-9.8,21.1-16.4,31-19.9
		c9.8-3.4,17.7-4.2,23.6-2.2c5.9,2,8.6,6.9,8.1,14.7c-0.5,7.9-5.7,18.2-15.5,31c-36.4,44.2-75.2,79.1-116.5,104.7
		c-41.3,25.6-79.6,43.5-115,53.8c-35.4,10.3-65.6,14-90.7,11.1c-25.1-3-39.1-10.8-42-23.6c-2-7.9,2.2-20.1,12.5-36.9
		c10.3-16.7,22.9-35.1,37.6-55.3c14.7-20.1,30.2-40,46.4-59.7c16.2-19.6,29.2-36.3,39.1-50.1c-15.7,3.9-40.9-14.6-63,0.6
		c-22.1,15.3-59.4,30.2-85,46.3c-111.2,70.1-144.4,101.3-244.8,186.9"/>
	<path class="st0" d="M2031.9,717.8c-14.7,21.6-34.6,42.3-59.7,61.9c-25.1,19.7-53.8,37.4-86.2,53.1c-32.4,15.7-67.8,29-106.2,39.8
		c-38.3,10.8-77.7,17.7-117.9,20.6c-5.9,24.6-6.4,46-1.5,64.1c4.9,18.2,17.2,29.7,36.9,34.6c19.6,5.9,46.7,2,81.1-11.8
		c34.4-13.8,71.7-33.4,112-59c40.3-25.5,81.1-55.3,122.4-89.2c41.3-33.9,78.6-68.6,112-103.9c12.8-14.7,24.3-23.6,34.6-26.5
		c10.3-2.9,17.9-2.7,22.9,0.7c4.9,3.5,6.6,9.8,5.2,19.2c-1.5,9.4-6.6,19.4-15.5,30.2c-31.5,35.4-69.3,73.2-113.5,113.5
		c-44.2,40.3-89.9,77.4-137.1,111.3c-47.2,33.9-93.4,62.2-138.6,84.8c-45.2,22.6-85.5,33.9-120.9,33.9c-51.1,0-87.5-12.8-109.1-38.3
		c-21.6-25.5-31.2-57.7-28.8-96.6c2.4-38.8,15.5-80.6,39.1-125.3c23.6-44.7,54.5-86.5,92.9-125.3c38.3-38.8,82.8-71,133.4-96.6
		c50.6-25.5,104.4-38.3,161.4-38.3c22.6,0,42.3,3.7,59,11.1c16.7,7.4,29.2,17.2,37.6,29.5c8.3,12.3,11.5,27.3,9.6,45
		C2055,678,2046.7,697.2,2031.9,717.8z M1855,647.1c-16.7,5.9-33.4,15-50.1,27.3c-16.7,12.3-32.7,27-47.9,44.2
		c-15.2,17.2-29.3,35.6-42,55.3c-12.8,19.7-23.6,39.3-32.4,59c44.2-4.9,82.6-14,115-27.3c32.4-13.3,59-28,79.6-44.2
		s35.6-32.9,45-50.1c9.3-17.2,13.3-31.7,11.8-43.5c-1.5-11.8-8.8-20.1-22.1-25.1C1898.5,637.7,1879.6,639.2,1855,647.1z"/>
	<path class="st0" d="M1401,119c60.8-2,266.1,6.6,316.2,6.1c50.1-0.5,773.4,10.1,836.3,9.1l63.4-85.5c10.8-13.8,24.6-25.3,41.3-34.6
		c16.7-9.3,31.9-14,45.7-14h42.8c13.8,0,21.9,4.7,24.3,14c2.4,9.4-1.7,20.9-12.5,34.6c-2,2-8.6,10.6-19.9,25.8
		c-11.3,15.2-25.3,34.2-42,56.8c22.6,0,46.4-0.2,71.5-0.7c25.1-0.5,51.3-0.7,78.9-0.7l60.4-81.1c10.8-13.8,24.6-25.3,41.3-34.6
		c16.7-9.3,31.9-14,45.7-14h42.8c13.8,0,21.9,4.7,24.3,14c2.4,9.4-1.7,20.9-12.5,34.6c-2,2-8.4,10.3-19.2,25.1
		c-10.8,14.7-24.6,33.4-41.3,56c35.4,0,69.5,0,102.5,0c32.9,0,62.9-0.2,89.9-0.7c27-0.5,50.1-1,69.3-1.5c19.2-0.5,32.7-0.7,40.5-0.7
		c24.6-1,47.9,3.5,70,13.3c22.1,9.8,39.1,20.9,50.9,33.2c11.8,12.3,16.2,23.8,13.3,34.6c-2.9,10.8-16.7,16.2-41.3,16.2
		c-10.8,0-31.2,0.5-61.2,1.5c-30,1-66.9,2.2-110.6,3.7c-43.7,1.5-91.9,3.2-144.5,5.2c-52.6,2-105.9,3.9-160,5.9
		c-43.3,59-222.6,302.1-258.5,352.2c-35.9,50.1-67.8,94.9-95.8,134.2c-28,39.3-51.4,72.7-70,100.3c-18.7,27.5-31.5,47.2-38.3,59
		c-17.7,29.5-27.5,50.9-29.5,64.1c-2,13.3,0.5,20.9,7.4,22.9c9.8,2.9,26.3-3.4,49.4-19.2c23.1-15.7,48.7-36.3,76.7-61.9
		c28-25.5,56.3-53.1,84.8-82.6c28.5-29.5,52.6-56.5,72.2-81.1c13.7-15.7,25.5-25.8,35.4-30.2c9.8-4.4,17-4.4,21.4,0
		c4.4,4.4,5.9,11.6,4.4,21.4c-1.5,9.8-5.7,20.6-12.5,32.4c-6.9,9.8-18.4,24.6-34.6,44.2c-16.2,19.7-35.4,41.3-57.5,64.9
		c-22.1,23.6-46.2,48.2-72.2,73.7c-26.1,25.6-52.6,49.2-79.6,70.8c-27,21.6-53.3,40.5-78.9,56.8c-25.6,16.2-49.2,26.3-70.8,30.2
		c-23.6,4.9-43,4.7-58.2-0.7c-15.3-5.4-26.3-14.2-33.2-26.5c-6.9-12.3-10.3-27.3-10.3-45c0-17.7,3.4-36.9,10.3-57.5
		c-34.4,31.5-69.1,59.5-103.9,84c-34.9,24.6-66.6,39.8-95.1,45.7c-29.5,5.9-52.1,4.4-67.8-4.4c-15.7-8.8-25.8-22.6-30.2-41.3
		c-4.4-18.7-3.7-40.5,2.2-65.6c5.9-25.1,16.2-50.9,31-77.4c6.9-11.8,21.4-34.1,43.5-67.1c22.1-32.9,48.4-70.8,78.9-113.5
		c30.5-42.8,62.9-88.5,97.3-137.1c34.4-48.7,207.1-283.6,238.6-327.9c-66.9,3-417.6-14.2-467.2-16.3
		c-437.5-18-1022.4-37.6-1038.1-37.6c-25.6,1-39.8-5.4-42.8-19.2c-2.9-13.7,1-28.7,11.8-45c10.8-16.2,399,19.5,420.1,5.3
		C1368.6,131.1,1378.4,119.7,1401,119z M2409.4,735.5c32.4-47.2,67.3-97.3,104.7-150.4c37.3-53.1,213-291.7,247.4-338.9l-153.3,5.9
		c-30.5,42.3-202.2,275-235.6,321.2c-33.4,46.2-64.9,90.2-94.4,131.9c-29.5,41.8-55.3,78.9-77.4,111.3s-37.6,55.5-46.4,69.3
		c-17.7,29.5-27.5,50.9-29.5,64.1c-2,13.3,0.5,20.9,7.4,22.9c9.8,2.9,25.8-3,47.9-17.7s46.7-34.4,73.7-59
		c27-24.6,54.6-51.3,82.6-80.4C2364.4,786.9,2388.7,760.1,2409.4,735.5z"/>
	<path class="st0" d="M3097.9,717.8c-14.7,21.6-34.6,42.3-59.7,61.9c-25.1,19.7-53.8,37.4-86.2,53.1c-32.4,15.7-67.8,29-106.2,39.8
		c-38.3,10.8-77.7,17.7-117.9,20.6c-5.9,24.6-6.4,46-1.5,64.1c4.9,18.2,17.2,29.7,36.9,34.6c19.6,5.9,46.7,2,81.1-11.8
		c34.4-13.8,71.7-33.4,112-59c40.3-25.5,81.1-55.3,122.4-89.2c41.3-33.9,78.6-68.6,112-103.9c12.8-14.7,24.3-23.6,34.6-26.5
		c10.3-2.9,17.9-2.7,22.9,0.7c4.9,3.5,6.6,9.8,5.2,19.2c-1.5,9.4-6.6,19.4-15.5,30.2c-31.5,35.4-69.3,73.2-113.5,113.5
		c-44.2,40.3-89.9,77.4-137.1,111.3c-47.2,33.9-93.4,62.2-138.6,84.8c-45.2,22.6-85.5,33.9-120.9,33.9c-51.1,0-87.5-12.8-109.1-38.3
		c-21.6-25.5-31.2-57.7-28.8-96.6c2.4-38.8,15.5-80.6,39.1-125.3c23.6-44.7,54.6-86.5,92.9-125.3c38.3-38.8,82.8-71,133.4-96.6
		c50.6-25.5,104.4-38.3,161.4-38.3c22.6,0,42.2,3.7,59,11.1c16.7,7.4,29.2,17.2,37.6,29.5c8.3,12.3,11.5,27.3,9.6,45
		C3120.9,678,3112.6,697.2,3097.9,717.8z M2920.9,647.1c-16.7,5.9-33.4,15-50.1,27.3c-16.7,12.3-32.7,27-47.9,44.2
		c-15.3,17.2-29.3,35.6-42,55.3c-12.8,19.7-23.6,39.3-32.4,59c44.2-4.9,82.6-14,115-27.3c32.4-13.3,59-28,79.6-44.2
		c20.6-16.2,35.6-32.9,45-50.1c9.3-17.2,13.3-31.7,11.8-43.5c-1.5-11.8-8.8-20.1-22.1-25.1C2964.4,637.7,2945.5,639.2,2920.9,647.1z
		"/>
</g>
<g>
	<path class="st0" d="M394.8,617.7c-50,0-91.2-12.3-123.4-36.8c-32.2-24.5-53.9-55.3-64.9-92.4c-11.1-37-11.1-77.2,0-120.5
		c11-43.3,33.9-83.5,68.5-120.5c34.6-37,81.5-67.8,140.7-92.4c59.2-24.5,132.1-36.8,218.6-36.8h788c22.1,0,33.4,7.2,33.9,21.6
		c0.5,14.4-5.3,30.1-17.3,46.9c-12,16.8-16.5-9.1-37.1,5.3c-20.7,14.4-41.1,21.6-61.3,21.6c-10.6,0-26-1.2-46.2-3.6
		c-20.2-2.4-43.8-5.8-70.7-10.1c-26.9-4.3-56.5-9.1-88.8-14.4c-32.2-5.3-69.7,18.6-105.3,12.8c-11.5,16.4-34.9,49.5-53.2,75
		c-18.3,25.5-38.2,53.2-59.9,83c-21.6,29.8-43.8,60.9-66.4,93.1c-22.6,32.2-44.3,63-64.9,92.4c-20.7,29.4-39.2,55.8-55.6,79.4
		c-16.4,23.6-28.9,41.6-37.5,54.1c-47.2,71.2-91.9,132.8-134.2,184.7c-42.3,52-85.1,95-128.4,129.2c-43.3,34.2-88.5,59.7-135.7,76.5
		c-47.2,16.8-99.1,25.3-155.9,25.3c-56.8,0-99.6-18.3-128.4-54.8c-6.7-8.7-9.9-17.5-9.4-26.7c0.5-9.1,4.6-13.7,12.3-13.7
		c5.8,1,12.7,3.4,20.9,7.2c8.2,3.9,18,7.9,29.6,12.3c11.5,4.3,24.3,8.2,38.2,11.5c13.9,3.4,29.1,5.1,45.5,5.1
		c35.6,0,69.3-9.1,101-27.4c31.7-18.3,62.5-42.8,92.4-73.6c29.8-30.8,59.2-66.9,88-108.2c28.9-41.4,58.7-84.7,89.5-129.9
		c7.7-11.5,21.2-31,40.4-58.5c19.2-27.4,41.1-58.4,65.7-93.1c24.5-34.6,50.5-70.9,77.9-109c27.4-38,52.9-73.6,76.5-106.8
		c23.6-33.2,44.2-62.1,62.1-86.6c17.8-24.5,29.6-40.6,35.4-48.3c-44.3-5.8-87.3-10.6-129.2-14.4c-41.9-3.8-80.1-5.8-114.7-5.8
		c-61.6,0-112.3,8.9-152.3,26.7c-39.9,17.8-70.7,40.2-92.4,67.1c-21.6,26.9-34.2,56.3-37.5,88c-3.4,31.7,0.9,61.1,13,88
		c12,26.9,30.8,49.3,56.3,67.1c25.5,17.8,57,26.7,94.5,26.7c24,0,36.8,4.3,38.2,13c1.4,8.7-4.8,18.3-18.8,28.9
		c-14,10.6-33.4,20.2-58.4,28.9C449.1,613.4,422.7,617.7,394.8,617.7z"/>
</g>
<path class="st0" d="M1017.1,912.7c0,0,170.6-164.6,475.8-308l-34.5,91c0,0-212.8,85.4-428.5,286.6L1017.1,912.7z"/>
<path class="st0" d="M1065.6,869.8c0,0-98.2,84.9-135.7,102.1c-37.5,17.2-17.2-50.7,0-77.1s-89.2,58.8-89.2,58.8l32.5,80.1
	l114.6-46.7l84.2-81.1L1065.6,869.8z"/>
<g>
	<path class="st0" d="M3326,1014.8c0,38-29.9,67.9-68.7,67.9c-38.4,0-69.1-29.9-69.1-67.9c0-37.2,30.7-67.1,69.1-67.1
		C3296.1,947.7,3326,977.6,3326,1014.8z M3205.3,1014.8c0,29.9,22.1,53.6,52.3,53.6c29.4,0,51.1-23.7,51.1-53.2
		c0-29.9-21.7-54-51.5-54C3227.4,961.2,3205.3,985.3,3205.3,1014.8z M3246.6,1049.9h-15.5v-67.1c6.1-1.2,14.7-2,25.8-2
		c12.7,0,18.4,2,23.3,4.9c3.7,2.9,6.5,8.2,6.5,14.7c0,7.4-5.7,13.1-13.9,15.5v0.8c6.5,2.5,10.2,7.4,12.3,16.4
		c2,10.2,3.3,14.3,4.9,16.8h-16.8c-2-2.5-3.3-8.6-5.3-16.4c-1.2-7.4-5.3-10.6-13.9-10.6h-7.4V1049.9z M3247,1011.9h7.4
		c8.6,0,15.5-2.9,15.5-9.8c0-6.1-4.5-10.2-14.3-10.2c-4.1,0-6.9,0.4-8.6,0.8V1011.9z"/>
</g>
</svg>
